<svg xmlns="http://www.w3.org/2000/svg" viewBox="0 0 256 256" role="img" aria-label="MemoNetwork logo">
  <defs>
    <linearGradient id="blue" x1="0" y1="0" x2="1" y2="1">
      <stop offset="0" stop-color="#1d4ed8"/>
      <stop offset="0.5" stop-color="#0ea5e9"/>
      <stop offset="1" stop-color="#67e8f9"/>
    </linearGradient>
    <linearGradient id="silver" x1="0" y1="0" x2="1" y2="1">
      <stop offset="0" stop-color="#ffffff"/>
      <stop offset="0.45" stop-color="#dbe4ef"/>
      <stop offset="1" stop-color="#7b8798"/>
    </linearGradient>
    <linearGradient id="cube" x1="0" y1="0" x2="1" y2="1">
      <stop offset="0" stop-color="#94a3b8"/>
      <stop offset="1" stop-color="#111827"/>
    </linearGradient>
    <filter id="shadow" x="-30%" y="-30%" width="160%" height="160%">
      <feDropShadow dx="0" dy="4" stdDeviation="4" flood-color="#020617" flood-opacity="0.8"/>
    </filter>
  </defs>

  <g filter="url(#shadow)">
    <path d="M52 55c39-29 98-35 145-12 19 9 34 22 44 37" fill="none" stroke="#07111f" stroke-width="14" stroke-linecap="round"/>
    <path d="M52 55c39-29 98-35 145-12 19 9 34 22 44 37" fill="none" stroke="url(#blue)" stroke-width="8" stroke-linecap="round"/>
    <circle cx="238" cy="81" r="18" fill="#07111f" stroke="#0ea5e9" stroke-width="6"/>
    <circle cx="238" cy="81" r="10" fill="#67e8f9"/>

    <path d="M48 73h38l35 42 33-42h37l-5 92h-34l3-49-31 41h-10l-31-41 3 49H52z" fill="url(#blue)" stroke="#08111f" stroke-width="7" stroke-linejoin="round"/>
    <path d="M153 73h38l-4 42 26-42h36l-46 92h-35z" fill="url(#silver)" stroke="#08111f" stroke-width="7" stroke-linejoin="round"/>

    <g transform="translate(101 145)">
      <path d="M27 0 58 14 30 29 0 15z" fill="#cbd5e1" stroke="#0f172a" stroke-width="4"/>
      <path d="M0 15 30 29 30 62 0 47z" fill="#111827" stroke="#0f172a" stroke-width="4"/>
      <path d="M58 14 30 29 30 62 58 46z" fill="url(#cube)" stroke="#0f172a" stroke-width="4"/>
      <path d="M8 26v10m10-5v10m20-13v10m10-15v10" stroke="#64748b" stroke-width="5" stroke-linecap="round"/>
    </g>

    <path d="M26 177c13 20 36 36 64 45 48 16 102 4 136-28" fill="none" stroke="#07111f" stroke-width="14" stroke-linecap="round"/>
    <path d="M26 177c13 20 36 36 64 45 48 16 102 4 136-28" fill="none" stroke="url(#blue)" stroke-width="8" stroke-linecap="round"/>
    <circle cx="26" cy="177" r="16" fill="#07111f" stroke="#0ea5e9" stroke-width="6"/>
    <circle cx="26" cy="177" r="8" fill="#1d4ed8"/>
  </g>
</svg>
